<svg width="21" height="14" viewBox="0 0 21 14" fill="none" xmlns="http://www.w3.org/2000/svg">
<path d="M3.26562 1C3.26562 0.446875 3.7125 0 4.26562 0H5.26562C5.81875 0 6.26562 0.446875 6.26562 1V6V8V13C6.26562 13.5531 5.81875 14 5.26562 14H4.26562C3.7125 14 3.26562 13.5531 3.26562 13V11H2.26562C1.7125 11 1.26562 10.5531 1.26562 10V8C0.7125 8 0.265625 7.55312 0.265625 7C0.265625 6.44688 0.7125 6 1.26562 6V4C1.26562 3.44688 1.7125 3 2.26562 3H3.26562V1ZM17.2656 1V3H18.2656C18.8188 3 19.2656 3.44688 19.2656 4V6C19.8188 6 20.2656 6.44688 20.2656 7C20.2656 7.55312 19.8188 8 19.2656 8V10C19.2656 10.5531 18.8188 11 18.2656 11H17.2656V13C17.2656 13.5531 16.8188 14 16.2656 14H15.2656C14.7125 14 14.2656 13.5531 14.2656 13V8V6V1C14.2656 0.446875 14.7125 0 15.2656 0H16.2656C16.8188 0 17.2656 0.446875 17.2656 1ZM13.2656 6V8H7.26562V6H13.2656Z" />
</svg>
