<svg width="22" height="18" viewBox="0 0 22 18" fill="none" xmlns="http://www.w3.org/2000/svg">
<path d="M21.1492 8.98242C21.1492 9.61523 20.6219 10.1109 20.0242 10.1109H18.8992L18.9238 15.743C18.9238 15.8379 18.9168 15.9328 18.9062 16.0277V16.5938C18.9062 17.3707 18.277 18 17.5 18H16.9375C16.8988 18 16.8602 18 16.8215 17.9965C16.7723 18 16.723 18 16.6738 18H15.5312H14.6875C13.9105 18 13.2812 17.3707 13.2812 16.5938V15.75V13.5C13.2812 12.8777 12.7785 12.375 12.1562 12.375H9.90625C9.28398 12.375 8.78125 12.8777 8.78125 13.5V15.75V16.5938C8.78125 17.3707 8.15195 18 7.375 18H6.53125H5.40977C5.35703 18 5.3043 17.9965 5.25156 17.993C5.20937 17.9965 5.16719 18 5.125 18H4.5625C3.78555 18 3.15625 17.3707 3.15625 16.5938V12.6562C3.15625 12.6246 3.15625 12.5895 3.15977 12.5578V10.1109H2.03125C1.39844 10.1109 0.90625 9.61875 0.90625 8.98242C0.90625 8.66602 1.01172 8.38477 1.25781 8.13867L10.2719 0.28125C10.518 0.0351562 10.7992 0 11.0453 0C11.2914 0 11.5727 0.0703125 11.7836 0.246094L20.7625 8.13867C21.0437 8.38477 21.1844 8.66602 21.1492 8.98242Z" />
</svg>
